PathFileType	4	(X/Y/Z)	C:/Users/beibeiliu/ov580/test_trc/User3\sequence.37_training_dense_left.trc
DataRate	CameraRate	NumFrames	NumMarkers	Units	OrigDataRate	OrigDataStartFrame	OrigNumFrames
120	120	21	19	mm	120	69	274
Frame#	Time	ThumbCMC			ThumbMCP			ThumbIP			ThumbTip			IndexMCP			IndexPIP			IndexTip			MiddleMCP			MiddlePIP			MiddleTip			RingMCP			RingPIP			RingTip			PinkyMCP			PinkyPIP			PinkyTip			BackHand1			BackHand2			BackHand3	
		X0	Y0	Z0	X1	Y1	Z1	X2	Y2	Z2	X3	Y3	Z3	X4	Y4	Z4	X5	Y5	Z5	X6	Y6	Z6	X7	Y7	Z7	X8	Y8	Z8	X9	Y9	Z9	X10	Y10	Z10	X11	Y11	Z11	X12	Y12	Z12	X13	Y13	Z13	X14	Y14	Z14	X15	Y15	Z15	X16	Y16	Z16	X17	Y17	Z17	X18	Y18	Z18	
68	0.566667	-175.052	8.18364	-13.4985	-166.028	-2.86467	-44.9302	-172.216	-9.16159	-72.2842	-193.514	-17.4804	-92.0421	-200.902	34.8027	-84.5573	-197.819	10.2444	-107.671	-191.895	-10.765	-85.327	-221.075	28.371	-89.2593	-217.639	1.75272	-106.76	-206.672	-21.8893	-77.3686	-234.739	21.4033	-79.6842	-232.597	-6.51238	-95.8488	-224.092	-24.9592	-70.7716	-252.612	10.6346	-68.8392	-242.637	-12.058	-83.8963	-230.027	-29.0501	-64.0319	-235.87	34.4747	-26.5505	-238.056	29.3734	3.79884	-204.971	35.9511	-14.616	
69	0.575	-175.959	5.00929	-15.0998	-166.196	-10.3581	-46.7077	-168.748	-23.2617	-73.668	-188.521	-36.4701	-88.2563	-197.03	16.7993	-91.78	-194.92	-12.1285	-107.37	-187.373	-27.3025	-81.4215	-220.077	4.91115	-95.5223	-214.746	-23.1968	-104.728	-202.275	-36.7215	-67.4224	-236.13	-1.66569	-82.8879	-231.286	-29.7305	-91.8256	-215.587	-39.0142	-62.9477	-249.874	-8.60867	-70.4926	-238.28	-32.9652	-78.9514	-226.898	-45.2568	-55.5954	-236.514	25.5208	-28.9539	-235.949	24.1089	1.78781	-203.551	30.9117	-20.8451	
70	0.583333	-168.552	6.07561	-16.1192	-161.046	-13.8958	-40.3975	-158.271	-33.3989	-66.0659	-177.07	-50.4903	-79.0742	-191.826	-1.02989	-92.6397	-182.819	-28.2656	-105.403	-175.226	-40.307	-70.3903	-208.411	-13.8859	-92.1706	-200.659	-44.8438	-95.9238	-186.569	-47.734	-58.9496	-227.657	-22.968	-79.9204	-212.43	-52.6208	-79.0354	-201.765	-47.6193	-46.6024	-240.787	-31.6309	-67.3319	-229.038	-55.7592	-67.0646	-209.802	-52.653	-40.5662	-234.866	12.6664	-35.8204	-229.46	19.4263	-4.69583	-201.767	26.0253	-25.3721	
71	0.591667	-163.727	7.97638	-16.2161	-145.864	-12.6846	-30.7517	-143.371	-35.6874	-52.8374	-154.847	-59.6503	-63.9617	-181.637	-18.0543	-85.7577	-163.587	-44.6841	-89.5599	-156.613	-44.6064	-56.4446	-193.834	-30.0293	-86.4205	-175.182	-57.7839	-83.3883	-169.104	-51.5673	-42.1948	-206.409	-42.3073	-74.6846	-192.651	-65.7332	-68.2792	-183.494	-53.0606	-33.4219	-223.986	-47.3247	-56.3407	-203.595	-68.8067	-53.5099	-188.707	-58.4016	-27.0654	-226.839	-0.855326	-38.48	-229.114	11.2725	-8.8681	-196.405	21.9194	-29.6367	
72	0.6	-157.595	13.473	-4.71985	-134.897	-8.25226	-18.8582	-120.519	-31.4124	-36.1417	-132.627	-57.036	-44.4811	-160.243	-24.0938	-76.744	-139.268	-48.4307	-75.1078	-131.856	-43.1109	-43.1793	-170.676	-42.3733	-76.9366	-150.152	-64.4428	-64.153	-149.68	-52.3651	-28.7965	-183.538	-52.9265	-63.7035	-162.157	-71.1948	-49.8549	-159.483	-52.4652	-20.2082	-197.265	-57.1633	-48.689	-177.14	-75.5947	-38.5046	-168.289	-60.9549	-10.9659	-217.182	-10.4833	-35.1865	-223.291	5.17871	-7.41937	-193.346	16.4821	-25.6706	
73	0.608333	-157.366	20.3998	0.780734	-128.57	2.01547	-10.4863	-106.196	-19.7019	-21.685	-105.245	-45.0105	-23.8915	-140.555	-19.7125	-64.8486	-111.236	-37.3383	-60.4589	-111.083	-31.6166	-26.0167	-145.366	-39.267	-63.6199	-121.4	-56.2088	-51.2434	-127.485	-40.7415	-12.0079	-156.853	-52.3149	-50.5628	-131.395	-63.6682	-31.9268	-137.071	-45.0083	-4.11834	-166.317	-64.4881	-35.8164	-145.986	-72.2959	-18.2998	-143.686	-48.3303	1.84222	-198.819	-19.5784	-32.3951	-215.873	-10.9635	-8.31884	-187.827	10.9713	-24.6233	
74	0.616667	-159.875	24.8224	4.1884	-123.224	21.2144	-0.14703	-96.4096	2.7079	-7.53204	-86.1061	-20.1263	-6.91433	-124.487	-12.5887	-53.0149	-93.1777	-20.9658	-46.8862	-88.5175	-9.14791	-15.5384	-121.524	-33.0725	-50.8132	-95.6848	-38.069	-33.8349	-103.456	-20.6126	0.126142	-131.582	-44.9324	-35.4458	-104.064	-49.9275	-13.431	-111.985	-33.1299	9.40379	-139.405	-60.6721	-17.9134	-117.888	-57.6047	-4.31421	-121.251	-35.2046	16.8887	-184.961	-30.3193	-19.2262	-205.352	-16.8317	-2.52911	-183.598	7.45183	-19.5613	
75	0.625	-164.006	31.272	6.11063	-129.227	34.5883	5.22191	-99.526	30.1425	1.83025	-81.6448	8.78209	6.23613	-114.992	-3.60113	-43.167	-81.6495	1.51383	-33.9203	-79.7362	17.1871	-6.56962	-107.235	-19.1884	-37.9428	-79.7675	-14.7263	-19.8476	-97.8145	0.826069	14.4478	-110.02	-35.7386	-19.2607	-85.614	-25.264	-2.34875	-102.232	-9.12967	26.2123	-119.12	-46.1037	-3.37717	-96.3698	-39.5321	12.339	-105.827	-15.4125	29.9354	-165.559	-31.5573	-14.4624	-194.453	-26.3111	6.04908	-182.127	-0.900584	-13.4019	
76	0.633333	-169.25	32.337	5.5538	-140.045	47.6491	5.86894	-108.771	45.0177	4.8902	-85.5751	33.1169	11.6053	-113.324	13.4631	-38.5866	-81.4481	27.3291	-31.1163	-82.7592	38.1994	-1.25545	-96.956	-3.78245	-29.2151	-74.3441	9.40438	-9.89674	-95.8532	23.1562	19.5052	-100.043	-16.8425	-12.0917	-77.9618	-3.5386	10.4423	-96.4159	9.25266	32.3302	-102.316	-32.3957	6.71313	-84.8632	-17.288	20.7427	-102.192	4.75448	40.6458	-156.126	-31.3691	-2.86373	-178.893	-36.4819	11.2518	-173.669	-6.42087	-12.13	
77	0.641667	-176.971	26.4474	8.56132	-151.379	49.8654	4.17083	-121.534	60.8738	4.33104	-98.6638	51.6302	12.727	-113.234	20.6632	-33.9894	-87.3944	43.9439	-27.5901	-95.3097	56.7686	2.97041	-97.703	11.5283	-25.3449	-79.2601	32.2497	-9.07479	-103.204	36.4293	22.1733	-93.7521	-1.19269	-5.33159	-79.9277	18.5054	15.6317	-104.981	27.2005	35.8685	-95.2767	-13.4356	10.1795	-83.26	7.37663	25.0649	-103.399	19.0741	39.8749	-144.931	-31.2843	0.636017	-169.805	-36.8017	18.6126	-169.648	-9.95429	-7.84486	
78	0.65	-184.399	25.7277	6.96056	-160.462	51.87	0.612909	-134.768	65.6866	1.64377	-111.393	58.9462	11.6643	-116.162	29.975	-34.5412	-98.6567	56.2461	-30.9448	-109.688	67.6918	-2.12141	-99.7943	18.9367	-21.5088	-88.0364	49.6176	-5.2029	-115.519	49.4737	20.0424	-96.3968	10.8481	-3.93686	-85.0757	35.5818	16.3613	-110.725	38.952	34.1621	-96.5388	-0.501595	14.553	-88.9903	26.5657	27.7039	-112.607	30.6153	42.9636	-141.121	-24.1326	6.12974	-160.822	-34.6248	21.7742	-169.265	-8.77433	-4.82617	
79	0.658333	-184.612	20.4664	6.38625	-170.353	50.9872	-1.24808	-145.181	71.2499	-2.53732	-119.396	67.1143	9.14662	-121.215	32.1955	-34.573	-107.186	63.7941	-27.8259	-123.267	72.7403	-4.37872	-101.977	28.722	-22.3696	-96.5909	58.0802	-10.618	-122.223	52.4735	18.4027	-95.9497	24.6721	-5.54404	-93.4379	46.4692	14.9751	-121.23	44.5077	31.0062	-95.1608	12.0828	14.3144	-93.2191	36.4269	28.4943	-119.975	34.1698	42.0246	-134.68	-22.6183	8.72363	-154.648	-35.3267	21.1348	-165.81	-13.3046	-5.16287	
80	0.666667	-184.901	16.5859	5.8161	-178.767	50.0151	-2.46292	-151.336	67.9092	-3.9085	-128.803	68.3508	8.27444	-122.283	37.3281	-38.8022	-114.249	67.9313	-29.084	-135.727	71.6774	-4.74682	-105.445	34.1373	-24.4591	-102.693	63.7528	-8.73509	-130.15	54.5268	15.3124	-101.669	28.386	-6.58939	-101.157	53.6856	9.6582	-130.934	43.8981	26.943	-93.3602	21.2625	15.2002	-102.224	42.4362	25.5169	-126.823	33.9942	41.5851	-126.874	-20.5884	3.80911	-152.414	-33.3845	21.4283	-165.029	-14.5489	-4.97292	
81	0.675	-189.885	16.0691	2.71484	-179.147	48.9807	-4.95389	-155.495	69.8095	-6.69594	-131.804	69.6976	6.63124	-127.356	37.6414	-39.9248	-117.505	67.5375	-32.6841	-137.136	68.4812	-3.87357	-110.165	38.114	-28.5754	-109.778	67.4365	-13.1413	-132.041	52.221	16.0237	-102.249	30.6745	-6.14752	-103.656	54.8047	11.8232	-135.748	41.6597	26.0045	-99.2013	26.2898	11.1951	-107.658	45.6981	25.5836	-131.409	30.8462	41.6131	-127.483	-20.034	4.31361	-146.244	-34.2804	22.6177	-163.05	-14.4947	-6.1734	
82	0.683333	-188.812	13.8252	0.205897	-181.625	44.6482	-5.74652	-155.512	68.2084	-7.97856	-132.375	65.2212	3.70077	-128.402	37.5467	-43.938	-121.918	68.4584	-35.7646	-138.092	67.3101	-6.37431	-111.197	34.2236	-29.8511	-111.541	66.2797	-12.473	-134.825	49.7705	13.3935	-102.807	31.9268	-8.84128	-106.161	54.0935	11.1547	-136.403	42.3202	23.2238	-99.6001	21.1641	10.3247	-106.885	45.3224	25.1695	-130.391	31.972	37.9822	-128.487	-18.4921	-1.86295	-148.699	-35.4582	18.0869	-163.357	-18.7048	-7.30976	
83	0.691667	-189.502	11.7339	1.56622	-182.305	47.1458	-9.32941	-157.078	65.8321	-11.0769	-131.614	66.5663	0.361043	-130.654	35.5988	-45.961	-122.068	66.8996	-37.3876	-140.81	66.9861	-10.2047	-108.086	35.6244	-32.9095	-108.773	63.0853	-15.7923	-133.05	50.5309	9.23765	-103.834	29.0349	-13.1544	-105.563	53.9385	5.54437	-133.92	40.3695	22.76	-97.6144	20.4393	7.5829	-103.483	43.5413	21.9194	-131.635	33.2053	31.8797	-127.645	-19.9231	-1.12264	-147.087	-36.11	19.4062	-164.129	-17.7446	-10.7748	
84	0.7	-189.706	14.9799	-4.29899	-180.414	48.1437	-13.2549	-157.584	70.3064	-17.4348	-131.299	67.9045	-5.11811	-132.295	33.0066	-50.3188	-122.305	65.5802	-39.9482	-141.461	67.9109	-16.5803	-112.8	35.0396	-39.8708	-107.375	61.6457	-24.6152	-135.593	51.6941	3.57177	-102.466	27.334	-19.1793	-106.649	54.275	-1.58731	-133.06	43.167	15.4721	-99.1536	20.3209	-2.55599	-100.983	42.8002	13.5195	-127.821	37.3202	25.9731	-129.285	-22.5926	-5.61789	-152.062	-35.8919	17.0223	-167.714	-17.129	-13.7365	
85	0.708333	-192.713	19.2405	-2.85375	-177.91	48.5411	-15.1026	-154.368	66.1243	-20.3961	-127.335	65.861	-13.9659	-134.397	30.9422	-56.1885	-122.449	58.856	-53.7922	-137.825	67.479	-24.5505	-117.633	28.1581	-48.5108	-110.585	59.6751	-35.1107	-132.579	53.5372	-6.23356	-103.737	22.0004	-28.9689	-103.279	51.4297	-17.0055	-127.087	44.5417	8.49076	-96.7521	15.4589	-12.0205	-97.7142	39.5101	-1.96504	-122.989	38.1111	20.8401	-136.451	-22.7205	-6.97989	-155.398	-32.7544	11.1323	-175.177	-15.175	-12.7002	
86	0.716667	-192.036	26.6286	-0.247018	-175.421	55.146	-17.1134	-152.424	70.7822	-27.7365	-120.112	62.5474	-26.2437	-143.532	26.3428	-61.5127	-127.456	56.912	-66.4116	-135.388	68.8614	-34.4909	-123.713	19.6497	-55.579	-110.498	49.8484	-52.0615	-129.18	51.0164	-13.2651	-113.282	15.7483	-41.296	-101.189	43.461	-29.6935	-118.327	46.867	-5.01284	-107.221	6.47063	-24.7013	-99.5831	33.2491	-20.0899	-112.193	38.9367	5.80749	-146.938	-21.4484	-8.95575	-164.036	-29.0963	9.10289	-183.658	-9.31821	-13.7618	
87	0.725	-188.719	39.6727	3.42053	-167.452	62.9214	-16.515	-142.911	67.141	-32.1356	-116.169	60.5844	-37.7909	-153.298	27.7955	-67.9129	-131.058	49.9504	-74.922	-128.468	67.503	-44.9561	-136.815	18.9891	-66.5595	-115.585	44.2709	-64.2102	-123.905	50.7705	-27.2467	-122.633	6.23633	-50.6247	-104.243	31.6895	-47.6224	-115.012	42.5081	-16.5862	-118.38	-2.50986	-34.6491	-99.0948	20.0376	-33.8956	-105.726	31.658	-8.8636	-160.046	-20.5438	-13.8476	-174.502	-24.1319	13.8223	-191.342	0.761665	-10.306	
88	0.733333	-179.361	51.3939	7.87693	-155.748	66.2908	-10.6205	-131.234	71.4408	-34.3846	-111.839	49.5808	-40.588	-161.505	35.9332	-63.7686	-131.814	53.8626	-75.07	-119.346	61.9535	-48.6537	-144.734	20.6146	-69.0547	-116.965	37.7921	-66.3002	-118.284	45.9461	-30.7924	-136.652	3.99858	-53.6174	-111.23	21.3517	-55.1848	-110.208	31.7313	-23.1471	-133.069	-6.70846	-41.3464	-109.818	7.18011	-44.3113	-103.195	18.4271	-17.569	-176.995	-10.2368	-14.13	-185.938	-15.0035	12.2393	-195.177	18.9588	-8.88332	
